HIERARCHY
ROOT joint_Root
{
	OFFSET 0.0 0.0 0.0
	CHANNELS 6 Xposition Yposition Zposition Zrotation Xrotation Yrotation 
	JOINT Hips
	{
		OFFSET 4.5925 91.4895 -427.239
		CHANNELS 6 Xposition Yposition Zposition Zrotation Xrotation Yrotation 
		JOINT Spine
		{
			OFFSET 15.7357 0.0 0.0
			CHANNELS 6 Xposition Yposition Zposition Zrotation Xrotation Yrotation 
			JOINT Chest
			{
				OFFSET 8.98455 -0.406207 0.0
				CHANNELS 6 Xposition Yposition Zposition Zrotation Xrotation Yrotation 
				JOINT Neck
				{
					OFFSET 16.3773 0.0 0.0
					CHANNELS 6 Xposition Yposition Zposition Zrotation Xrotation Yrotation 
					JOINT Head
					{
						OFFSET 6.45672 0.0 0.0
						CHANNELS 6 Xposition Yposition Zposition Zrotation Xrotation Yrotation 
						End Site
						{
							OFFSET 0.0 0.0 0.0
						}
					}
				}
				JOINT Shoulder_L
				{
					OFFSET 12.9942 -0.242716 4.98039
					CHANNELS 6 Xposition Yposition Zposition Zrotation Xrotation Yrotation 
					JOINT UpperArm_L
					{
						OFFSET 5.34809 0.0 0.0
						CHANNELS 6 Xposition Yposition Zposition Zrotation Xrotation Yrotation 
						JOINT LowerArm_L
						{
							OFFSET 24.3286 1.87007e-05 0.0
							CHANNELS 6 Xposition Yposition Zposition Zrotation Xrotation Yrotation 
							JOINT Hand_L
							{
								OFFSET 22.2916 0.0 0.0
								CHANNELS 6 Xposition Yposition Zposition Zrotation Xrotation Yrotation 
								End Site
								{
									OFFSET 0.0 0.0 0.0
								}
							}
						}
					}
				}
				JOINT Shoulder_R
				{
					OFFSET 12.9945 -0.242716 -4.98039
					CHANNELS 6 Xposition Yposition Zposition Zrotation Xrotation Yrotation 
					JOINT UpperArm_R
					{
						OFFSET -5.34813 0.0 0.0
						CHANNELS 6 Xposition Yposition Zposition Zrotation Xrotation Yrotation 
						JOINT LowerArm_R
						{
							OFFSET -24.3289 0.000322201 0.0
							CHANNELS 6 Xposition Yposition Zposition Zrotation Xrotation Yrotation 
							JOINT Hand_R
							{
								OFFSET -22.2915 -0.000108084 0.0
								CHANNELS 6 Xposition Yposition Zposition Zrotation Xrotation Yrotation 
								End Site
								{
									OFFSET 0.0 0.0 0.0
								}
							}
						}
					}
				}
			}
		}
		JOINT UpperLeg_L
		{
			OFFSET -2.19248 -6.46944 0.0
			CHANNELS 6 Xposition Yposition Zposition Zrotation Xrotation Yrotation 
			JOINT LowerLeg_L
			{
				OFFSET 39.0811 0.0 -1.23785e-05
				CHANNELS 6 Xposition Yposition Zposition Zrotation Xrotation Yrotation 
				JOINT Foot_L
				{
					OFFSET 40.9854 0.0 -1.26872e-05
					CHANNELS 6 Xposition Yposition Zposition Zrotation Xrotation Yrotation 
					JOINT Toes_L
					{
						OFFSET 11.7543 0.0 0.0
						CHANNELS 6 Xposition Yposition Zposition Zrotation Xrotation Yrotation 
						End Site
						{
							OFFSET 0.0 0.0 0.0
						}
					}
				}
			}
		}
		JOINT UpperLeg_R
		{
			OFFSET -2.19251 6.46944 0.0
			CHANNELS 6 Xposition Yposition Zposition Zrotation Xrotation Yrotation 
			JOINT LowerLeg_R
			{
				OFFSET -39.0811 -0.00228153 -0.0401928
				CHANNELS 6 Xposition Yposition Zposition Zrotation Xrotation Yrotation 
				JOINT Foot_R
				{
					OFFSET -40.9854 0.0 0.0
					CHANNELS 6 Xposition Yposition Zposition Zrotation Xrotation Yrotation 
					JOINT Toes_R
					{
						OFFSET -11.7543 0.0 0.0
						CHANNELS 6 Xposition Yposition Zposition Zrotation Xrotation Yrotation 
						End Site
						{
							OFFSET 0.0 0.0 0.0
						}
					}
				}
			}
		}
	}
}
MOTION
Frames:	8
Frame Time:	0.0333333
0.000000 0.000000 0.000000 0.000000 0.000000 -0.000000 122.401000 90.839100 -89.651500 88.139000 -1.823630 -2.417830 15.735700 0.000005 -0.000001 83.735200 81.167400 -84.159200 8.984550 -0.406207 -0.000000 9.790790 -1.923460 -0.682600 16.377300 -0.000001 -0.000001 -1.002500 -2.991330 0.429305 6.456720 -0.000001 -0.000000 -3.473560 -2.328490 2.788100 12.994200 -0.242716 4.980390 -90.516900 1.837410 -74.285600 5.348090 -0.000007 -0.000001 -59.106100 27.514400 -24.733000 24.328600 0.000019 0.000005 8.353420 14.878700 -29.763200 22.291600 -0.000001 0.000005 13.594600 5.244430 1.579540 12.994500 -0.242716 -4.980390 88.436300 8.905570 -79.999100 -5.348130 -0.000001 -0.000004 -64.410400 30.625300 -9.243350 -24.328900 0.000322 -0.000009 0.274184 0.480785 -29.796600 -22.291500 -0.000108 -0.000004 14.569200 5.383340 -2.403610 -2.192480 -6.469440 -0.000000 -177.708000 -11.020800 -12.661400 39.081100 -0.000007 -0.000012 -0.236334 0.387355 31.388700 40.985400 -0.000006 -0.000013 -0.221139 -0.923905 -71.358400 11.754300 -0.000000 0.000003 -0.000178 -0.001677 -16.641000 -2.192510 6.469440 -0.000001 -174.145000 18.333000 152.680000 -39.081100 -0.002282 -0.040193 0.030062 -0.040872 33.221100 -40.985400 0.000008 0.000006 1.236010 3.581540 -59.722600 -11.754300 -0.000006 -0.000006 -0.012959 -0.124557 -21.652100
0.000000 0.000000 0.000000 0.000000 0.000000 -0.000000 122.301000 90.740800 -88.196200 88.090000 -1.509140 -2.967650 15.735700 0.000005 -0.000001 83.007700 81.203800 -83.220500 8.984550 -0.406207 -0.000000 9.696550 -2.132410 -0.244446 16.377300 -0.000001 -0.000001 -1.432320 -2.941990 0.381876 6.456720 -0.000001 -0.000000 -3.973160 -2.259980 2.768490 12.994200 -0.242716 4.980390 -90.531000 1.898680 -74.371400 5.348090 -0.000007 -0.000001 -58.660900 26.927500 -25.190500 24.328600 0.000019 0.000005 8.710930 14.272300 -31.860900 22.291600 -0.000001 0.000005 14.123100 5.247880 1.488790 12.994500 -0.242716 -4.980390 88.409100 9.062620 -79.999900 -5.348130 -0.000001 -0.000004 -64.618000 30.594900 -8.427990 -24.328900 0.000322 -0.000009 0.381606 0.693242 -28.905800 -22.291500 -0.000108 -0.000004 14.218400 5.376080 -2.175710 -2.192480 -6.469440 -0.000000 -177.475000 -11.179500 -12.008200 39.081100 -0.000007 -0.000012 -0.247476 0.410050 31.112500 40.985400 -0.000006 -0.000013 -0.356673 -0.478597 -72.251400 11.754300 -0.000000 0.000003 -0.000200 -0.001849 -16.647300 -2.192510 6.469440 -0.000001 -172.181000 19.335700 151.436000 -39.081100 -0.002282 -0.040193 0.018627 -0.028946 27.891400 -40.985400 0.000008 0.000006 2.821480 5.751980 -58.149800 -11.754300 -0.000006 -0.000006 -0.013927 -0.130953 -21.914400
0.000000 0.000000 0.000000 0.000000 0.000000 -0.000000 122.174000 90.522600 -86.408200 88.246000 -0.983301 -3.228160 15.735700 0.000005 -0.000001 82.288700 81.180200 -82.274200 8.984550 -0.406207 -0.000000 9.720300 -2.352460 0.229116 16.377300 -0.000001 -0.000001 -1.675320 -2.994690 0.339655 6.456720 -0.000001 -0.000000 -4.333700 -2.271770 2.635450 12.994200 -0.242716 4.980390 -90.545900 1.960240 -74.435300 5.348090 -0.000007 -0.000001 -58.515400 26.587500 -25.423200 24.328600 0.000019 0.000005 9.046510 13.854900 -33.619500 22.291600 -0.000001 0.000005 14.677800 5.251440 1.395080 12.994500 -0.242716 -4.980390 88.385900 9.166590 -79.968800 -5.348130 -0.000001 -0.000004 -64.748500 30.356500 -7.876040 -24.328900 0.000322 -0.000009 0.378732 0.715145 -27.972000 -22.291500 -0.000108 -0.000004 14.227100 5.375310 -2.151420 -2.192480 -6.469440 -0.000000 -177.452000 -11.070100 -11.027100 39.081100 -0.000007 -0.000012 -0.206755 0.342053 31.151300 40.985400 -0.000006 -0.000013 0.227742 -0.318352 -73.531700 11.754300 -0.000000 0.000003 -0.438000 -0.580449 -16.274600 -2.192510 6.469440 -0.000001 -171.414000 19.102100 150.518000 -39.081100 -0.002282 -0.040193 0.013558 -0.020931 26.085600 -40.985400 0.000008 0.000006 4.686060 6.240760 -57.561800 -11.754300 -0.000006 -0.000006 -0.013311 -0.126904 -21.748400
0.000000 0.000000 0.000000 0.000000 0.000000 -0.000000 121.998000 90.176100 -84.245400 88.410800 -0.113003 -3.290280 15.735700 0.000005 -0.000001 81.510400 81.167200 -81.176400 8.984550 -0.406207 -0.000000 9.720920 -2.586650 0.887584 16.377300 -0.000001 -0.000001 -1.650800 -3.146180 0.309681 6.456720 -0.000001 -0.000000 -4.460830 -2.370100 2.353010 12.994200 -0.242716 4.980390 -90.547000 1.969270 -74.472900 5.348090 -0.000007 -0.000001 -58.710800 26.685800 -25.390600 24.328600 0.000019 0.000005 9.185040 13.435800 -34.833900 22.291600 -0.000001 0.000005 15.129900 5.254090 1.324480 12.994500 -0.242716 -4.980390 88.359500 9.180510 -79.823000 -5.348130 -0.000001 -0.000004 -64.848500 29.962700 -7.492100 -24.328900 0.000322 -0.000009 0.352922 0.691989 -27.091700 -22.291500 -0.000108 -0.000004 14.225000 5.370320 -1.996660 -2.192480 -6.469440 -0.000000 -177.426000 -10.689500 -9.771820 39.081100 -0.000007 -0.000012 -0.088702 0.144484 31.547000 40.985400 -0.000006 -0.000013 1.846220 -0.455191 -75.362000 11.754300 -0.000000 0.000003 -1.481450 -1.952740 -15.119300 -2.192510 6.469440 -0.000001 -171.639000 18.234800 150.052000 -39.081100 -0.002282 -0.040193 0.013725 -0.019803 27.748400 -40.985400 0.000008 0.000006 7.548450 5.284220 -55.406400 -11.754300 -0.000006 -0.000006 -0.013318 -0.126950 -21.750200
0.000000 0.000000 0.000000 0.000000 0.000000 -0.000000 121.788000 89.813400 -81.848600 88.493600 1.041810 -3.310410 15.735700 0.000005 -0.000001 80.905900 81.223500 -80.134100 8.984550 -0.406207 -0.000000 9.593460 -2.745840 1.773160 16.377300 -0.000001 -0.000001 -1.585250 -3.434450 0.230174 6.456720 -0.000001 -0.000000 -4.205570 -2.588720 1.995030 12.994200 -0.242716 4.980390 -90.619800 2.218890 -74.388800 5.348090 -0.000007 -0.000001 -59.015400 27.201300 -25.187500 24.328600 0.000019 0.000005 9.283210 13.224500 -35.545900 22.291600 -0.000001 0.000005 15.298200 5.257390 1.236680 12.994500 -0.242716 -4.980390 88.287300 9.365170 -79.588200 -5.348130 -0.000001 -0.000004 -64.533700 29.481900 -7.226860 -24.328900 0.000322 -0.000009 0.317166 0.642167 -26.360400 -22.291500 -0.000108 -0.000004 14.271200 5.365610 -1.851310 -2.192480 -6.469440 -0.000000 -177.099000 -10.033100 -8.876220 39.081100 -0.000007 -0.000012 -0.001045 0.001621 32.829700 40.985400 -0.000006 -0.000013 2.447820 -0.327544 -76.780400 11.754300 -0.000000 0.000003 -0.780067 -0.990522 -14.825000 -2.192510 6.469440 -0.000001 -172.274000 17.563700 149.931000 -39.081100 -0.002282 -0.040193 0.017137 -0.022976 31.059200 -40.985400 0.000008 0.000006 9.300150 3.257380 -57.054700 -11.754300 -0.000006 -0.000006 -0.010203 -0.105147 -20.857400
0.000000 0.000000 0.000000 0.000000 0.000000 -0.000000 121.608000 89.641200 -79.417800 88.862100 1.580170 -3.001880 15.735700 0.000005 -0.000001 81.581900 81.185900 -80.472300 8.984550 -0.406207 -0.000000 9.705010 -2.546550 2.434080 16.377300 -0.000001 -0.000001 -1.641510 -3.689150 0.364638 6.456720 -0.000001 -0.000000 -4.004080 -2.836430 1.464710 12.994200 -0.242716 4.980390 -90.709700 2.526690 -74.304800 5.348090 -0.000007 -0.000001 -60.178500 27.561200 -24.361100 24.328600 0.000019 0.000005 9.508550 13.399200 -35.859000 22.291600 -0.000001 0.000005 15.558300 5.255750 1.280290 12.994500 -0.242716 -4.980390 88.252800 9.602130 -79.636600 -5.348130 -0.000001 -0.000004 -63.750900 28.943200 -7.426620 -24.328900 0.000322 -0.000009 0.077267 0.163584 -25.558000 -22.291500 -0.000108 -0.000004 14.511300 5.368310 -1.934380 -2.192480 -6.469440 -0.000000 -176.921000 -9.466070 -8.973000 39.081100 -0.000007 -0.000012 0.005990 -0.008140 36.341700 40.985400 -0.000006 -0.000013 1.782420 -0.069893 -75.892500 11.754300 -0.000000 0.000003 -0.000493 -0.007916 -16.899000 -2.192510 6.469440 -0.000001 -173.346000 16.733000 150.504000 -39.081100 -0.002282 -0.040193 0.022213 -0.027915 34.128600 -40.985400 0.000008 0.000006 9.907600 1.778020 -59.507700 -11.754300 -0.000006 -0.000006 -0.007648 -0.085136 -20.039500
0.000000 0.000000 0.000000 0.000000 0.000000 -0.000000 121.414000 89.638200 -77.099100 89.475200 1.902450 -2.524890 15.735700 0.000005 -0.000001 82.769900 81.100800 -81.480100 8.984550 -0.406207 -0.000000 9.922440 -2.201860 2.769290 16.377300 -0.000001 -0.000001 -1.456240 -3.984530 0.643694 6.456720 -0.000001 -0.000000 -3.972240 -3.118930 1.282900 12.994200 -0.242716 4.980390 -90.638100 2.268130 -74.282900 5.348090 -0.000007 -0.000001 -62.323500 27.960300 -23.135100 24.328600 0.000019 0.000005 9.417130 13.440300 -35.510200 22.291600 -0.000001 0.000005 15.753400 5.254890 1.303120 12.994500 -0.242716 -4.980390 88.291000 9.470140 -79.721500 -5.348130 -0.000001 -0.000004 -63.163200 28.663400 -8.285600 -24.328900 0.000322 -0.000009 0.115349 0.256832 -24.394700 -22.291500 -0.000108 -0.000004 14.698900 5.365310 -1.842040 -2.192480 -6.469440 -0.000000 -176.938000 -9.141260 -10.312500 39.081100 -0.000007 -0.000012 0.022494 -0.025225 41.722500 40.985400 -0.000006 -0.000013 1.063170 0.552215 -72.651700 11.754300 -0.000000 0.000003 -0.015755 -0.142534 -22.393400 -2.192510 6.469440 -0.000001 -174.450000 16.917200 151.891000 -39.081100 -0.002282 -0.040193 0.028835 -0.035302 35.891400 -40.985400 0.000008 0.000006 10.068200 1.276680 -61.971200 -11.754300 -0.000006 -0.000006 -0.006408 -0.074498 -19.605400
0.000000 0.000000 0.000000 0.000000 0.000000 -0.000000 121.208000 89.771500 -74.943000 90.220100 2.310990 -2.027440 15.735700 0.000005 -0.000001 83.748500 80.972800 -82.392200 8.984550 -0.406207 -0.000000 10.209600 -1.924280 2.882800 16.377300 -0.000001 -0.000001 -1.370680 -4.226610 1.064540 6.456720 -0.000001 -0.000000 -3.915810 -3.436970 1.179090 12.994200 -0.242716 4.980390 -90.615600 2.193540 -74.318900 5.348090 -0.000007 -0.000001 -63.658800 29.020000 -22.063500 24.328600 0.000019 0.000005 8.955090 13.056600 -34.896600 22.291600 -0.000001 0.000005 15.439300 5.254180 1.321790 12.994500 -0.242716 -4.980390 88.332300 9.333900 -79.823200 -5.348130 -0.000001 -0.000004 -62.540200 28.187600 -9.461180 -24.328900 0.000322 -0.000009 0.345789 0.790236 -23.699800 -22.291500 -0.000108 -0.000004 14.825100 5.359330 -1.659050 -2.192480 -6.469440 -0.000000 -177.248000 -8.145710 -13.207200 39.081100 -0.000007 -0.000012 0.048890 -0.043098 48.600600 40.985400 -0.000006 -0.000013 0.264260 0.355307 -67.151600 11.754300 -0.000000 0.000003 -0.025929 -0.198173 -24.686600 -2.192510 6.469440 -0.000001 -175.534000 18.129900 153.728000 -39.081100 -0.002282 -0.040193 0.035460 -0.043253 36.643500 -40.985400 0.000008 0.000006 10.141600 1.632720 -64.155000 -11.754300 -0.000006 -0.000006 -0.005510 -0.066313 -19.271600
